<svg width="25" height="25" viewBox="0 0 25 25" fill="none" xmlns="http://www.w3.org/2000/svg">
<mask id="mask0_9_85" style="mask-type:alpha" maskUnits="userSpaceOnUse" x="0" y="0" width="25" height="25">
<rect x="0.137909" y="0.511841" width="24" height="24" fill="#D9D9D9"/>
</mask>
<g mask="url(#mask0_9_85)">
<path d="M2.13791 20.5118V15.5118C2.13791 14.6785 2.42958 13.9702 3.01291 13.3868C3.59624 12.8035 4.30458 12.5118 5.13791 12.5118H6.13791V4.51184H18.1379V12.5118H19.1379C19.9712 12.5118 20.6796 12.8035 21.2629 13.3868C21.8462 13.9702 22.1379 14.6785 22.1379 15.5118V20.5118H2.13791ZM8.13791 12.5118H16.1379V6.51184H8.13791V12.5118ZM4.13791 18.5118H20.1379V15.5118C20.1379 15.2285 20.0419 14.9908 19.8499 14.7988C19.6586 14.6075 19.4212 14.5118 19.1379 14.5118H5.13791C4.85458 14.5118 4.61691 14.6075 4.42491 14.7988C4.23358 14.9908 4.13791 15.2285 4.13791 15.5118V18.5118ZM18.1379 17.5118C18.4212 17.5118 18.6586 17.4158 18.8499 17.2238C19.0419 17.0325 19.1379 16.7952 19.1379 16.5118C19.1379 16.2285 19.0419 15.9908 18.8499 15.7988C18.6586 15.6075 18.4212 15.5118 18.1379 15.5118C17.8546 15.5118 17.6172 15.6075 17.4259 15.7988C17.2339 15.9908 17.1379 16.2285 17.1379 16.5118C17.1379 16.7952 17.2339 17.0325 17.4259 17.2238C17.6172 17.4158 17.8546 17.5118 18.1379 17.5118ZM4.13791 14.5118C4.13791 14.5118 4.23358 14.5118 4.42491 14.5118C4.61691 14.5118 4.85458 14.5118 5.13791 14.5118H19.1379C19.4212 14.5118 19.6586 14.5118 19.8499 14.5118C20.0419 14.5118 20.1379 14.5118 20.1379 14.5118H4.13791Z" fill="white"/>
</g>
</svg>
