<svg width="49" height="30" viewBox="0 0 49 30" fill="none" xmlns="http://www.w3.org/2000/svg">
<g clip-path="url(#clip0_10_86)">
<path d="M13.8066 11.2334C13.8066 11.824 13.8705 12.3031 13.9821 12.6541C14.124 13.0493 14.2948 13.4335 14.4931 13.8035C14.5729 13.9312 14.6048 14.0591 14.6048 14.1708C14.6048 14.3305 14.5091 14.49 14.3016 14.6497L13.2959 15.3201C13.152 15.416 13.0083 15.4638 12.8806 15.4638C12.7211 15.4638 12.5614 15.384 12.4017 15.2403C12.1866 15.0091 11.9942 14.7579 11.8271 14.49C11.6674 14.2188 11.5077 13.9154 11.3322 13.5481C10.0869 15.0169 8.5223 15.7512 6.63863 15.7512C5.29773 15.7512 4.22802 15.3682 3.4457 14.6018C2.66357 13.8353 2.26431 12.8139 2.26431 11.5366C2.26431 10.1797 2.74323 9.07815 3.71708 8.248C4.69093 7.41784 5.984 7.00277 7.62849 7.00277C8.17125 7.00277 8.73003 7.0506 9.32063 7.13046C9.91123 7.21031 10.518 7.33799 11.1565 7.48169V6.31631C11.1565 5.10309 10.9011 4.25693 10.4062 3.762C9.89541 3.26707 9.03324 3.02752 7.80401 3.02752C7.24524 3.02752 6.67046 3.09155 6.07986 3.23524C5.48926 3.37894 4.91448 3.55446 4.35571 3.77801C4.10033 3.88969 3.9088 3.95353 3.79693 3.98555C3.68526 4.01756 3.6054 4.03338 3.54156 4.03338C3.31801 4.03338 3.20633 3.87368 3.20633 3.53845V2.75632C3.20633 2.50076 3.23835 2.30923 3.31801 2.19755C3.39787 2.08568 3.54156 1.974 3.76511 1.86233C4.32369 1.57494 4.99433 1.33538 5.77646 1.14385C6.55878 0.936311 7.38912 0.84064 8.26693 0.84064C10.1668 0.84064 11.5555 1.27154 12.4497 2.13371C13.3277 2.99569 13.7746 4.30477 13.7746 6.06093V11.2334H13.8066ZM7.32509 13.6598C7.85185 13.6598 8.3948 13.5642 8.96939 13.3726C9.54417 13.1809 10.0549 12.8297 10.486 12.3507C10.7414 12.0475 10.9331 11.7123 11.0288 11.3291C11.1246 10.946 11.1885 10.4831 11.1885 9.94014V9.26968C10.7043 9.15191 10.214 9.06137 9.7197 8.99849C9.22199 8.93521 8.72081 8.90313 8.21909 8.90244C7.14938 8.90244 6.36725 9.10998 5.84049 9.54107C5.31355 9.97215 5.05817 10.5788 5.05817 11.3771C5.05817 12.1274 5.24971 12.686 5.64877 13.0692C6.03202 13.4685 6.5908 13.6598 7.3249 13.6598H7.32509ZM20.1445 15.384C19.8571 15.384 19.6655 15.3361 19.5379 15.2245C19.41 15.1286 19.2983 14.9051 19.2026 14.6018L15.4507 2.26139C15.3549 1.94218 15.307 1.73464 15.307 1.62296C15.307 1.3674 15.4347 1.2237 15.6901 1.2237H17.2547C17.558 1.2237 17.7655 1.27154 17.8774 1.3834C18.005 1.47908 18.1007 1.70262 18.1966 2.00602L20.8786 12.5743L23.369 2.00602C23.4489 1.68661 23.5446 1.47908 23.6722 1.3834C23.8001 1.28755 24.0235 1.2237 24.3109 1.2237H25.5881C25.8913 1.2237 26.0989 1.27154 26.2266 1.3834C26.3544 1.47908 26.4661 1.70262 26.53 2.00602L29.0522 12.702L31.8141 2.00602C31.9099 1.68661 32.0216 1.47908 32.1335 1.3834C32.2612 1.28755 32.4687 1.2237 32.7561 1.2237H34.2407C34.4961 1.2237 34.64 1.35139 34.64 1.62296C34.64 1.70262 34.624 1.78247 34.608 1.87815C34.5919 1.97419 34.5599 2.10169 34.4961 2.2774L30.6487 14.6179C30.553 14.9371 30.4412 15.1446 30.3135 15.2403C30.1858 15.3363 29.9783 15.4 29.7069 15.4H28.334C28.0307 15.4 27.823 15.3521 27.6955 15.2403C27.5676 15.1286 27.456 14.9211 27.3921 14.6018L24.9175 4.30477L22.459 14.5858C22.3792 14.9051 22.2835 15.1126 22.1558 15.2243C22.0279 15.3361 21.8046 15.384 21.5172 15.384H20.1445ZM40.6586 15.8153C39.8284 15.8153 38.9983 15.7192 38.2001 15.5277C37.4018 15.3361 36.7792 15.1286 36.3641 14.8892C36.1087 14.7455 35.9332 14.5858 35.8692 14.4421C35.8071 14.3013 35.7745 14.1492 35.7735 13.9952V13.1809C35.7735 12.8457 35.9012 12.6862 36.1408 12.6862C36.2385 12.6865 36.3354 12.7026 36.428 12.734C36.5238 12.766 36.6675 12.8297 36.8272 12.8937C37.3911 13.1416 37.9797 13.3289 38.5832 13.4523C39.2085 13.5792 39.8449 13.6435 40.4829 13.644C41.4886 13.644 42.2711 13.4683 42.8138 13.1171C43.3566 12.7658 43.644 12.2551 43.644 11.6004C43.644 11.1535 43.5003 10.7863 43.2127 10.4831C42.9255 10.1797 42.3827 9.90831 41.6006 9.65294L39.2857 8.93446C38.1203 8.56722 37.2581 8.02445 36.7314 7.30617C36.2046 6.6037 35.9332 5.82138 35.9332 4.99122C35.9332 4.32077 36.0767 3.73017 36.3641 3.21924C36.6515 2.7083 37.0346 2.26139 37.5137 1.91016C37.9926 1.54292 38.5354 1.27173 39.174 1.08001C39.8124 0.888476 40.4829 0.808624 41.1853 0.808624C41.5366 0.808624 41.9038 0.824632 42.2551 0.872656C42.6223 0.920303 42.9575 0.984147 43.2927 1.04818C43.612 1.12784 43.9154 1.20769 44.2026 1.30355C44.49 1.39922 44.7135 1.49508 44.873 1.59094C45.0968 1.71863 45.2563 1.84632 45.3521 1.99001C45.4478 2.1177 45.4958 2.29322 45.4958 2.51677V3.26707C45.4958 3.6023 45.3681 3.77801 45.1286 3.77801C45.0009 3.77801 44.7934 3.71398 44.522 3.58648C43.612 3.1714 42.5903 2.96386 41.4567 2.96386C40.5469 2.96386 39.8284 3.10756 39.3335 3.41077C38.8386 3.71398 38.5832 4.17727 38.5832 4.83171C38.5832 5.27862 38.7429 5.66186 39.0621 5.96507C39.3813 6.26828 39.9721 6.57168 40.8183 6.84306L43.0852 7.56154C44.2346 7.92878 45.0647 8.43953 45.5597 9.09416C46.0546 9.74861 46.2941 10.4991 46.2941 11.3291C46.2941 12.0155 46.1503 12.6381 45.8789 13.1809C45.5915 13.7237 45.2084 14.2028 44.7135 14.5858C44.2186 14.9851 43.628 15.2723 42.9413 15.4798C42.223 15.7034 41.4727 15.8151 40.6586 15.8151V15.8153Z" fill="black"/>
<path d="M43.6758 23.5738C38.4235 27.453 30.7926 29.5124 24.2312 29.5124C15.0358 29.5124 6.75049 26.1121 0.492316 20.4608C-0.0026132 20.0137 0.44448 19.4071 1.03508 19.7583C7.804 23.6855 16.1534 26.0641 24.79 26.0641C30.6169 26.0641 37.0187 24.8509 42.9095 22.3604C43.7877 21.9612 44.538 22.9352 43.676 23.5736L43.6758 23.5738ZM45.8629 21.0834C45.1924 20.2212 41.4249 20.6683 39.7167 20.8758C39.2058 20.9397 39.126 20.4926 39.5889 20.1574C42.5903 18.05 47.5232 18.6568 48.098 19.3592C48.6727 20.0775 47.9383 25.0106 45.1286 27.3732C44.6975 27.7404 44.2824 27.5489 44.4741 27.07C45.1126 25.4895 46.5335 21.9293 45.8629 21.0834V21.0834Z" fill="#FF9900"/>
</g>
<defs>
<clipPath id="clip0_10_86">
<rect width="48" height="28.7038" fill="white" transform="translate(0.279694 0.808624)"/>
</clipPath>
</defs>
</svg>
