<svg width="49" height="49" viewBox="0 0 49 49" fill="none" xmlns="http://www.w3.org/2000/svg">
<mask id="mask0_8_79" style="mask-type:alpha" maskUnits="userSpaceOnUse" x="0" y="0" width="49" height="49">
<rect x="0.0991745" y="0.808624" width="48" height="48" fill="#D9D9D9"/>
</mask>
<g mask="url(#mask0_8_79)">
<path d="M9.59917 42.8086C9.16584 42.8086 8.80751 42.667 8.52417 42.3836C8.24084 42.1003 8.09917 41.742 8.09917 41.3086V38.8086H6.09917V31.3086C6.09917 30.8753 6.24084 30.517 6.52417 30.2336C6.80751 29.9503 7.16584 29.8086 7.59917 29.8086H10.0992V14.3086C10.0992 12.1753 10.8825 10.392 12.4492 8.95862C14.0158 7.52529 15.8992 6.80862 18.0992 6.80862C20.1992 6.80862 21.9742 7.53362 23.4242 8.98362C24.8742 10.4336 25.5992 12.2086 25.5992 14.3086V35.3086C25.5992 36.5753 26.0325 37.642 26.8992 38.5086C27.7658 39.3753 28.8325 39.8086 30.0992 39.8086C31.4658 39.8086 32.6408 39.3836 33.6242 38.5336C34.6075 37.6836 35.0992 36.6086 35.0992 35.3086V19.8086H32.5992C32.1658 19.8086 31.8075 19.667 31.5242 19.3836C31.2408 19.1003 31.0992 18.742 31.0992 18.3086V10.8086H33.0992V8.30862C33.0992 7.87529 33.2408 7.51696 33.5242 7.23362C33.8075 6.95029 34.1658 6.80862 34.5992 6.80862H38.5992C39.0325 6.80862 39.3908 6.95029 39.6742 7.23362C39.9575 7.51696 40.0992 7.87529 40.0992 8.30862V10.8086H42.0992V18.3086C42.0992 18.742 41.9575 19.1003 41.6742 19.3836C41.3908 19.667 41.0325 19.8086 40.5992 19.8086H38.0992V35.3086C38.0992 37.442 37.3158 39.2253 35.7492 40.6586C34.1825 42.092 32.2992 42.8086 30.0992 42.8086C27.9992 42.8086 26.2242 42.0836 24.7742 40.6336C23.3242 39.1836 22.5992 37.4086 22.5992 35.3086V14.3086C22.5992 13.042 22.1658 11.9753 21.2992 11.1086C20.4325 10.242 19.3658 9.80862 18.0992 9.80862C16.7325 9.80862 15.5575 10.2336 14.5742 11.0836C13.5908 11.9336 13.0992 13.0086 13.0992 14.3086V29.8086H15.5992C16.0325 29.8086 16.3908 29.9503 16.6742 30.2336C16.9575 30.517 17.0992 30.8753 17.0992 31.3086V38.8086H15.0992V41.3086C15.0992 41.742 14.9575 42.1003 14.6742 42.3836C14.3908 42.667 14.0325 42.8086 13.5992 42.8086H9.59917Z" fill="white"/>
</g>
</svg>
