<svg width="48" height="48" viewBox="0 0 48 48" fill="none" xmlns="http://www.w3.org/2000/svg">
<mask id="mask0_8_73" style="mask-type:alpha" maskUnits="userSpaceOnUse" x="0" y="0" width="48" height="48">
<rect width="48" height="48" fill="#D9D9D9"/>
</mask>
<g mask="url(#mask0_8_73)">
<path d="M38.3 42C36.9333 42 35.7417 41.5917 34.725 40.775C33.7083 39.9583 33.0667 38.9667 32.8 37.8H22.15C19.95 37.8 18.125 37.075 16.675 35.625C15.225 34.175 14.5 32.35 14.5 30.15C14.5 27.95 15.225 26.125 16.675 24.675C18.125 23.225 19.95 22.5 22.15 22.5H26C27.3667 22.5 28.4833 22.0667 29.35 21.2C30.2167 20.3333 30.65 19.2167 30.65 17.85C30.65 16.4833 30.2167 15.3667 29.35 14.5C28.4833 13.6333 27.3667 13.2 26 13.2H15.2C14.9 14.3667 14.25 15.3583 13.25 16.175C12.25 16.9917 11.0667 17.4 9.7 17.4C8.1 17.4 6.75 16.85 5.65 15.75C4.55 14.65 4 13.3 4 11.7C4 10.1 4.55 8.75 5.65 7.65C6.75 6.55 8.1 6 9.7 6C11.0667 6 12.25 6.40833 13.25 7.225C14.25 8.04167 14.9 9.03333 15.2 10.2H26C28.2 10.2 30.025 10.925 31.475 12.375C32.925 13.825 33.65 15.65 33.65 17.85C33.65 20.05 32.925 21.875 31.475 23.325C30.025 24.775 28.2 25.5 26 25.5H22.15C20.7833 25.5 19.6667 25.9333 18.8 26.8C17.9333 27.6667 17.5 28.7833 17.5 30.15C17.5 31.5167 17.9333 32.6333 18.8 33.5C19.6667 34.3667 20.7833 34.8 22.15 34.8H32.8C33.1 33.6333 33.75 32.6417 34.75 31.825C35.75 31.0083 36.9333 30.6 38.3 30.6C39.9 30.6 41.25 31.15 42.35 32.25C43.45 33.35 44 34.7 44 36.3C44 37.9 43.45 39.25 42.35 40.35C41.25 41.45 39.9 42 38.3 42ZM9.7 14.4C10.4667 14.4 11.1083 14.1417 11.625 13.625C12.1417 13.1083 12.4 12.4667 12.4 11.7C12.4 10.9333 12.1417 10.2917 11.625 9.775C11.1083 9.25833 10.4667 9 9.7 9C8.93333 9 8.29167 9.25833 7.775 9.775C7.25833 10.2917 7 10.9333 7 11.7C7 12.4667 7.25833 13.1083 7.775 13.625C8.29167 14.1417 8.93333 14.4 9.7 14.4Z" fill="white"/>
</g>
</svg>
