<svg width="49" height="49" viewBox="0 0 49 49" fill="none" xmlns="http://www.w3.org/2000/svg">
<mask id="mask0_6_13" style="mask-type:alpha" maskUnits="userSpaceOnUse" x="0" y="0" width="49" height="49">
<rect x="0.466492" y="0.511841" width="48" height="48" fill="#D9D9D9"/>
</mask>
<g mask="url(#mask0_6_13)">
<path d="M24.4665 30.9118C25.6998 30.9118 26.7332 30.4952 27.5665 29.6618C28.3998 28.8285 28.8165 27.7952 28.8165 26.5618C28.8165 25.3285 28.3998 24.2952 27.5665 23.4618C26.7332 22.6285 25.6998 22.2118 24.4665 22.2118C23.2332 22.2118 22.1998 22.6285 21.3665 23.4618C20.5332 24.2952 20.1165 25.3285 20.1165 26.5618C20.1165 27.7952 20.5332 28.8285 21.3665 29.6618C22.1998 30.4952 23.2332 30.9118 24.4665 30.9118ZM37.2665 41.5118L28.5665 32.8118C27.8998 33.2118 27.2415 33.4952 26.5915 33.6618C25.9415 33.8285 25.2332 33.9118 24.4665 33.9118C22.3998 33.9118 20.6582 33.2035 19.2415 31.7868C17.8248 30.3702 17.1165 28.6285 17.1165 26.5618C17.1165 24.4952 17.8248 22.7535 19.2415 21.3368C20.6582 19.9202 22.3998 19.2118 24.4665 19.2118C26.5332 19.2118 28.2748 19.9202 29.6915 21.3368C31.1082 22.7535 31.8165 24.4952 31.8165 26.5618C31.8165 27.3285 31.7082 28.0618 31.4915 28.7618C31.2748 29.4618 30.9498 30.0785 30.5165 30.6118L37.4665 37.5618V17.4118L28.8665 7.51184H11.4665V41.5118H37.2665ZM11.4665 44.5118C10.6665 44.5118 9.96649 44.2118 9.36649 43.6118C8.76649 43.0118 8.46649 42.3118 8.46649 41.5118V7.51184C8.46649 6.71184 8.76649 6.01184 9.36649 5.41184C9.96649 4.81184 10.6665 4.51184 11.4665 4.51184H30.0665L40.4665 16.4618V41.5118C40.4665 42.3118 40.1665 43.0118 39.5665 43.6118C38.9665 44.2118 38.2665 44.5118 37.4665 44.5118H11.4665Z" fill="white"/>
</g>
</svg>
