<svg width="48" height="48" viewBox="0 0 48 48" fill="none" xmlns="http://www.w3.org/2000/svg">
<mask id="mask0_7_19" style="mask-type:alpha" maskUnits="userSpaceOnUse" x="0" y="0" width="48" height="48">
<rect width="48" height="48" fill="#D9D9D9"/>
</mask>
<g mask="url(#mask0_7_19)">
<path d="M16 40.55C12.1 40.55 8.79167 39.1917 6.075 36.475C3.35833 33.7583 2 30.45 2 26.55C2 22.45 3.45833 19.1083 6.375 16.525C9.29167 13.9417 12.55 12.7667 16.15 13L11.85 8.7L14 6.55L22 14.55L14 22.55L11.85 20.4L16.3 15.95C13.1333 15.8833 10.4583 16.85 8.275 18.85C6.09167 20.85 5 23.4167 5 26.55C5 29.5833 6.075 32.175 8.225 34.325C10.375 36.475 12.9667 37.55 16 37.55H22V40.55H16ZM26 22.55V8.55H44V22.55H26ZM26 40.55V26.55H44V40.55H26ZM29 37.55H41V29.55H29V37.55Z" fill="white"/>
</g>
</svg>
